<svg width="109" height="110" viewBox="0 0 109 110" fill="none" xmlns="http://www.w3.org/2000/svg">
<g filter="url(#filter0_d_53_45)">
<path d="M85.6768 26.0864L13.2489 34.1162C11.7436 34.2838 10.2862 34.7444 8.96006 35.4716C7.63391 36.1988 6.46499 37.1784 5.51996 38.3544C4.57492 39.5305 3.87229 40.8799 3.45227 42.3257C3.03224 43.7715 2.90302 45.2853 3.07196 46.7808L8.36564 93.8194C8.70447 96.8373 10.2362 99.5979 12.6238 101.494C15.0115 103.39 18.0594 104.266 21.0973 103.929L93.5252 95.8997C96.5627 95.5609 99.3409 94.039 101.25 91.6679C103.16 89.2967 104.045 86.27 103.711 83.2517L98.4084 36.1964C98.2417 34.7017 97.78 33.2543 97.0497 31.937C96.3194 30.6197 95.3349 29.4583 94.1525 28.5193C92.97 27.5803 91.6128 26.8821 90.1584 26.4647C88.7041 26.0472 87.1812 25.9187 85.6768 26.0864Z" fill="#0A0A0A"/>
</g>
<path d="M40.3966 5.19953L26.2578 33.0901L27.6792 33.8013L41.818 5.91064L40.3966 5.19953Z" fill="#0A0A0A"/>
<path d="M44.83 4.52442L43.7587 5.6936L70.0358 29.455L71.1071 28.2858L44.83 4.52442Z" fill="#0A0A0A"/>
<path fill-rule="evenodd" clip-rule="evenodd" d="M45.4607 5.6306C45.861 5.03535 46.0748 4.33554 46.0748 3.61964C46.0748 3.14431 45.9805 2.67362 45.7974 2.23447C45.6143 1.79531 45.3459 1.39628 45.0076 1.06016C44.6692 0.724047 44.2676 0.457426 43.8255 0.275522C43.3834 0.0936178 42.9096 0 42.4312 0C41.7105 0 41.0061 0.212277 40.4069 0.610008C39.8077 1.00774 39.3407 1.57307 39.0649 2.23447C38.7892 2.89587 38.717 3.62365 38.8576 4.32579C38.9982 5.02793 39.3452 5.67288 39.8547 6.1791C40.3643 6.68532 41.0136 7.03007 41.7203 7.16973C42.4271 7.3094 43.1597 7.2377 43.8255 6.96374C44.4913 6.68978 45.0603 6.22584 45.4607 5.6306ZM44.1235 4.74298C44.3472 4.41046 44.4665 4.01953 44.4665 3.61961C44.4621 3.08469 44.2463 2.5729 43.8656 2.19464C43.4848 1.81638 42.9696 1.60196 42.4311 1.59761C42.0286 1.59761 41.635 1.71619 41.3003 1.93837C40.9656 2.16055 40.7048 2.47634 40.5507 2.84581C40.3966 3.21529 40.3563 3.62185 40.4349 4.01408C40.5134 4.40631 40.7072 4.7666 40.9919 5.04938C41.2766 5.33216 41.6392 5.52474 42.0341 5.60276C42.4289 5.68078 42.8381 5.64074 43.21 5.4877C43.582 5.33466 43.8999 5.07549 44.1235 4.74298Z" fill="#0A0A0A"/>
<defs>
<filter id="filter0_d_53_45" x="0" y="24.015" width="108.78" height="85.985" filterUnits="userSpaceOnUse" color-interpolation-filters="sRGB">
<feFlood flood-opacity="0" result="BackgroundImageFix"/>
<feColorMatrix in="SourceAlpha" type="matrix" values="0 0 0 0 0 0 0 0 0 0 0 0 0 0 0 0 0 0 127 0" result="hardAlpha"/>
<feOffset dx="1" dy="2"/>
<feGaussianBlur stdDeviation="2"/>
<feComposite in2="hardAlpha" operator="out"/>
<feColorMatrix type="matrix" values="0 0 0 0 0 0 0 0 0 0 0 0 0 0 0 0 0 0 0.25 0"/>
<feBlend mode="normal" in2="BackgroundImageFix" result="effect1_dropShadow_53_45"/>
<feBlend mode="normal" in="SourceGraphic" in2="effect1_dropShadow_53_45" result="shape"/>
</filter>
</defs>
</svg>
